<?xml version="1.0" encoding="utf-8"?>

<!DOCTYPE svg PUBLIC "-//W3C//DTD SVG 1.1//EN" "http://www.w3.org/Graphics/SVG/1.1/DTD/svg11.dtd">
<!-- Uploaded to: SVG Repo, www.svgrepo.com, Generator: SVG Repo Mixer Tools -->
<svg height="800px" width="800px" version="1.1" id="_x32_" xmlns="http://www.w3.org/2000/svg" xmlns:xlink="http://www.w3.org/1999/xlink" 
	 viewBox="0 0 512 512"  xml:space="preserve">
<g>
	<path class="st0" d="M116.969,304.69v108.845c0,31.88,25.946,57.841,57.845,57.841c31.896,0,57.858-25.962,57.858-57.841V303.54
		C189.546,324.619,157.84,288.886,116.969,304.69z M142.668,350.656c0.013-6.394,5.214-11.58,11.617-11.563
		c6.394,0.008,11.572,5.202,11.559,11.588c0,6.41-5.182,11.597-11.592,11.58C147.854,362.26,142.668,357.074,142.668,350.656z
		 M160.736,429.216c-4.878,0-8.822-3.961-8.822-8.843c0.003-4.865,3.961-8.827,8.842-8.819c4.878,0.017,8.823,3.97,8.81,8.843
		C169.567,425.271,165.614,429.216,160.736,429.216z M208.818,388.633c0,5.194-4.216,9.41-9.415,9.402
		c-5.202,0-9.41-4.216-9.41-9.426c0-5.194,4.224-9.41,9.426-9.402C204.622,379.207,208.822,383.423,208.818,388.633z"/>
	<path class="st0" d="M460.557,286.716c0,0-66.192-124.254-69.569-130.599c-11.597-21.754-32.545-37.706-71.805-37.706h-45.896
		V73.604c4.537-3.394,8.358-7.693,11.161-12.64c3.37-5.942,5.284-12.812,5.284-20.086c0-11.26-4.602-21.516-11.991-28.888
		C270.374,4.586,260.114,0,248.874,0H100.758C89.502,0,79.246,4.586,71.874,11.975c-7.388,7.388-11.991,17.644-11.991,28.904
		c0,7.274,1.936,14.144,5.288,20.086c2.815,4.948,6.637,9.246,11.169,12.64v44.806H64.803c-24.582,0-44.495,19.93-44.495,44.512
		c0,13.864,6.32,26.233,16.26,34.394c-19.03,5.07-33.038,22.395-33.038,43.006c0,24.581,19.93,44.511,44.511,44.511h28.3v128.701
		c0,27.137,11.058,51.784,28.871,69.602C123.026,500.946,147.672,512,174.81,512c27.149,0,51.8-11.054,69.61-28.863
		c3.119-3.123,6.025-6.436,8.687-9.961c6.587-8.612,11.74-18.368,15.208-28.88c14.97,13.33,34.571,26.143,58.856,32.365
		l181.299,20.307V288.114L460.557,286.716z M100.766,22.486H248.87c10.159,0,18.398,8.234,18.398,18.392
		c0,7.027-3.945,13.116-9.722,16.224h-6.723H98.814h-6.739c-5.786-3.107-9.71-9.197-9.71-16.224
		C82.365,30.72,90.6,22.486,100.766,22.486z M238.815,454.528c-13.507,21.047-37.122,35.01-64.005,35.01
		c-41.96,0-76-34.032-76-76.004V284.834V118.411V71.328c0.649,0.033,1.298,0.057,1.947,0.057h148.117
		c0.65,0,1.287-0.024,1.952-0.057v68.015l-5.762-4.454c-22.864-17.661-55.716-13.453-73.39,9.402
		c-17.665,22.872-13.458,55.73,9.402,73.399l69.75,53.913v141.932C250.827,428.632,246.421,442.71,238.815,454.528z
		 M242.854,165.108l-31.25,44.865l-20.23-15.418c-11.912-9.205-14.115-26.382-4.911-38.298c5.211-6.739,13.101-10.602,21.639-10.602
		c6.078,0,11.835,1.972,16.663,5.696L242.854,165.108z"/>
</g>
</svg>